# xmcd CD database file
#
# Track frame offsets:
#	150
#	22450
#	36345
#	55320
#	69617
#	87307
#	105055
#	124530
#	142857
#	160982
#	175132
#	191630
#	212312
#	231107
#	254312
#	265790
#	286710
#	307825
#
# Disc length: 4264 seconds
#
# Revision: 7
# Processed by: cddbd v1.5.2PL0 Copyright (c) Steve Scherf et al.
# Submitted via: CDex 1.70beta2
#
DISCID=f010a612
DTITLE=Various Artist - 40 Years of Australian Rock 'n' Roll - 90s
DYEAR=1998
DGENRE=Rock
TTITLE0=Standing Strong - Wendy Matthews
TTITLE1=Telephone Booth - Ian Moss
TTITLE2=Tip Of My Tongue - Diesel
TTITLE3=I Remember - The Badloves
TTITLE4=Bedroom Eyes - Kate Ceberano
TTITLE5=You Were There - Southern Sons
TTITLE6=Master Blaster - Nikka Costa
TTITLE7=Fathers Day - Weddings Parties Anything
TTITLE8=Way Out West - James Reyna - James Blundell
TTITLE9=Better Be Home Soon - Crowded House
TTITLE10=Crying In The Chapel - Peter Blakeley
TTITLE11=Cry - Lisa Edwards
TTITLE12=You're So Vain - Chocolate Starfish
TTITLE13=Change Of Heart - Jimmy Barnes
TTITLE14=Effervescent - Pollyanna
TTITLE15=Better - Screaming Jets
TTITLE16=Hard Love - Vika and Linda
TTITLE17=Greedy People - Electric Hippies
EXTD=Medtronic   1998\n
EXTT0=
EXTT1=
EXTT2=
EXTT3=
EXTT4=
EXTT5=
EXTT6=
EXTT7=
EXTT8=
EXTT9=
EXTT10=
EXTT11=
EXTT12=
EXTT13=
EXTT14=
EXTT15=
EXTT16=
EXTT17=
PLAYORDER=
